<?xml version="1.0" encoding="UTF-8"?><svg id="a" xmlns="http://www.w3.org/2000/svg" viewBox="0 0 742.51 146"><defs><style>.b,.c{fill:#0071bc;}.c{font-family:Coolvetica-Regular, Coolvetica;font-size:110.75px;}.d{fill:#ff0;}</style></defs><g><path class="b" d="M111.96,48.71c-2.73-4.36-6.88-7.31-11.48-8.6-.85-.24-1.72-.42-2.59-.55-4.48-.64-9.2,.23-13.33,2.81-3.91,2.44-6.68,6.04-8.14,10.07-.4,1.1-.7,2.24-.9,3.38-.82,4.66,0,9.62,2.71,13.95,3.77,6.03,10.26,9.34,16.9,9.34,2.16,0,4.32-.35,6.42-1.08,.64-1.44,1.55-2.59,2.77-3.36,1.27-.8,2.79-1.11,4.45-1.01,6.72-6.37,8.27-16.82,3.19-24.97Zm-9.1,22.95c-6.85,4.27-15.9,2.18-20.17-4.66-4.28-6.84-2.19-15.89,4.65-20.17,2.41-1.5,5.09-2.22,7.74-2.22,4.88,0,9.67,2.43,12.43,6.88,4.28,6.84,2.19,15.89-4.65,20.17Z"/><path class="b" d="M76.42,52.45c-.4,1.09-.7,2.23-.9,3.38l-10.9-2.19c.71-.98,1.15-2.12,1.32-3.3l10.47,2.1Z"/><path class="b" d="M64.88,45.27c-2.2-3.53-6.85-4.6-10.38-2.4-3.53,2.2-4.6,6.86-2.4,10.38,1.43,2.29,3.89,3.54,6.4,3.54,1.36,0,2.74-.37,3.98-1.14,.87-.54,1.58-1.22,2.14-2.01,.71-.98,1.15-2.12,1.32-3.3,.25-1.71-.08-3.5-1.06-5.07Zm-4.25,7.42c-.66,.41-1.4,.61-2.13,.61-1.35,0-2.67-.67-3.43-1.9-1.18-1.89-.61-4.39,1.28-5.57,.67-.41,1.4-.61,2.13-.61,1.35,0,2.67,.67,3.43,1.89,1.18,1.89,.6,4.39-1.29,5.57Z"/><path class="b" d="M106.64,26.66c-.81-1.3-2.07-2.2-3.56-2.54-1.49-.35-3.02-.09-4.32,.72-1.3,.81-2.2,2.08-2.54,3.57-.35,1.49-.09,3.02,.72,4.32,.56,.89,1.32,1.58,2.2,2.03l-1.24,4.81c.87,.12,1.74,.3,2.59,.54l1.22-4.71s.07,0,.11,0c1.03,0,2.08-.28,3.02-.87,2.67-1.67,3.49-5.21,1.82-7.89Zm-3.23,5.63c-.32,.2-.67,.33-1.02,.41-.9,.18-1.85-.06-2.56-.66-.25-.2-.46-.45-.64-.73-.43-.69-.58-1.52-.39-2.31,.19-.8,.67-1.48,1.37-1.91,.49-.31,1.05-.47,1.61-.47,.24,0,.47,.03,.7,.08,.8,.19,1.48,.67,1.91,1.37,.9,1.43,.46,3.33-.98,4.22Z"/><g><path class="b" d="M123.53,81.49l-8.59,5.36-2.61,1.64-1.14,.71-2.56,1.6-6.62,4.13c-1.05-3.51-1.64-7.05-1.65-10.2,0-1.21,.08-2.36,.25-3.43,.19-1.19,.5-2.29,.93-3.26,.64-1.44,1.55-2.59,2.77-3.36,1.27-.8,2.79-1.11,4.45-1.01,1.28,.07,2.65,.38,4.06,.89,1.07,.39,2.16,.89,3.26,1.49,2.51,1.36,5.06,3.24,7.44,5.43Z"/><path class="b" d="M133.05,94.39l-23.63,14.76c-.45-.54-.89-1.1-1.32-1.68-.5-.68-.99-1.4-1.45-2.15-.03-.05-.06-.1-.09-.15-.65-1.06-1.26-2.16-1.82-3.31l5.63-3.52,3.53-2.2,3.26-2.04,3.39-2.12h0l8.01-5.01c.82,1.06,1.58,2.14,2.26,3.24,.18,.29,.36,.58,.53,.88,.46,.79,.89,1.59,1.27,2.38,.15,.3,.29,.61,.43,.92Z"/><path class="b" d="M132.46,113.69l1.43,8.34-6.86-4.94c-3.54,.89-7.65-.03-11.55-2.53-2.11-1.35-4.17-3.17-6.05-5.41l23.63-14.76c1.19,2.68,1.92,5.32,2.21,7.82,.53,4.61-.44,8.69-2.8,11.49Z"/></g><path class="b" d="M106.65,105.32s-.06-.1-.09-.15c-1.7,2.15-3.68,3.81-5.75,4.8-2.67,1.27-5.27,1.33-7.3,.15-2.33-1.35-3.51-4.06-3.51-7.34,0-2.9,.93-6.23,2.79-9.46,1.86-3.2,4.62-6.33,7.58-8.59,0-1.21,.08-2.36,.25-3.43-.14,.09-.29,.18-.44,.28-1.88,1.25-3.72,2.86-5.39,4.64-1.67,1.79-3.16,3.76-4.32,5.76-4.81,8.3-4.09,17.08,1.69,20.43,1.39,.81,2.95,1.21,4.59,1.21s3.43-.42,5.2-1.27c2.22-1.06,4.32-2.74,6.15-4.9-.5-.68-.99-1.4-1.45-2.15Z"/><path class="b" d="M142.15,81.91c-.47-6.66-8.05-11.17-17.62-10.48-3.9,.28-8.13,1.43-11.7,3.15,1.07,.39,2.16,.89,3.26,1.49,2.76-1.07,5.79-1.78,8.63-1.98,.56-.04,1.12-.06,1.66-.06,7.15,0,12.78,3.37,13.12,8.07,.17,2.34-1.02,4.65-3.34,6.49-1.33,1.06-2.96,1.9-4.8,2.51,.46,.79,.89,1.59,1.27,2.38,1.97-.7,3.73-1.64,5.19-2.8,3.03-2.4,4.57-5.52,4.34-8.77Z"/><g><path class="d" d="M135.26,102.2l-19.79,12.35c-2.11-1.35-4.17-3.17-6.05-5.41l23.63-14.76c1.19,2.68,1.92,5.32,2.21,7.82Z"/><path class="d" d="M128.56,86.98l-8.01,5.01h0l-3.39,2.12-3.26,2.04-3.53,2.2-5.63,3.52c-1.1-2.22-2.01-4.56-2.72-6.93l6.62-4.13,2.56-1.6,1.14-.71,2.61-1.64,8.59-5.36c1.81,1.67,3.52,3.53,5.04,5.49Z"/></g></g><text class="c" transform="translate(144.44 102.71)"><tspan x="0" y="0">IconifyStock.</tspan></text></svg>